<svg xmlns="http://www.w3.org/2000/svg" width="170.0mm" height="178.0mm" viewBox="0 0 170.0 178.0">
  <rect width="100%" height="100%" fill="#ffffff"/>
  <line x1="73.0000" y1="76.0000" x2="160.0000" y2="57.5076" stroke="#c1272d" stroke-width="0.45" stroke-dasharray="5,1.2,1,1.2" stroke-linecap="round"/>
  <line x1="73.0000" y1="76.0000" x2="70.6952" y2="10.0000" stroke="#c1272d" stroke-width="0.45" stroke-dasharray="5,1.2,1,1.2" stroke-linecap="round"/>
  <line x1="73.0000" y1="76.0000" x2="13.5733" y2="10.0000" stroke="#1b5e9c" stroke-width="0.45" stroke-dasharray="3,2" stroke-linecap="round"/>
  <line x1="73.0000" y1="76.0000" x2="10.0000" y2="101.4537" stroke="#c1272d" stroke-width="0.45" stroke-dasharray="5,1.2,1,1.2" stroke-linecap="round"/>
  <line x1="73.0000" y1="76.0000" x2="125.4890" y2="160.0000" stroke="#c1272d" stroke-width="0.45" stroke-dasharray="5,1.2,1,1.2" stroke-linecap="round"/>
  <line x1="73.0000" y1="76.0000" x2="160.0000" y2="122.2587" stroke="#1b5e9c" stroke-width="0.45" stroke-dasharray="3,2" stroke-linecap="round"/>
  <line x1="18.0000" y1="160.0000" x2="125.4890" y2="160.0000" stroke="#9a9a9a" stroke-width="0.35" stroke-linecap="round"/>
  <line x1="125.4890" y1="160.0000" x2="160.0000" y2="160.0000" stroke="#9a9a9a" stroke-width="0.35" stroke-linecap="round"/>
  <line x1="160.0000" y1="160.0000" x2="160.0000" y2="122.2587" stroke="#9a9a9a" stroke-width="0.35" stroke-linecap="round"/>
  <line x1="160.0000" y1="122.2587" x2="160.0000" y2="57.5076" stroke="#9a9a9a" stroke-width="0.35" stroke-linecap="round"/>
  <line x1="160.0000" y1="57.5076" x2="160.0000" y2="10.0000" stroke="#9a9a9a" stroke-width="0.35" stroke-linecap="round"/>
  <line x1="160.0000" y1="10.0000" x2="70.6952" y2="10.0000" stroke="#9a9a9a" stroke-width="0.35" stroke-linecap="round"/>
  <line x1="70.6952" y1="10.0000" x2="13.5733" y2="10.0000" stroke="#9a9a9a" stroke-width="0.35" stroke-linecap="round"/>
  <line x1="13.5733" y1="10.0000" x2="10.0000" y2="10.0000" stroke="#9a9a9a" stroke-width="0.35" stroke-linecap="round"/>
  <line x1="10.0000" y1="10.0000" x2="10.0000" y2="101.4537" stroke="#9a9a9a" stroke-width="0.35" stroke-linecap="round"/>
  <line x1="10.0000" y1="152.0000" x2="10.0000" y2="101.4537" stroke="#9a9a9a" stroke-width="0.35" stroke-linecap="round"/>
  <line x1="18.0000" y1="160.0000" x2="10.0000" y2="152.0000" stroke="#9a9a9a" stroke-width="0.35" stroke-linecap="round"/>
  <text x="10.00" y="175.50" font-family="sans-serif" font-size="4" fill="#666">d03_vertex6  |  front view -- reference only, do not print to fold</text>
</svg>
